<?xml version="1.0" encoding="UTF-8"?>
<!DOCTYPE svg PUBLIC "-//W3C//DTD SVG 1.1//EN" "http://www.w3.org/Graphics/SVG/1.1/DTD/svg11.dtd">
<svg version="1.1" xmlns="http://www.w3.org/2000/svg" xmlns:xlink="http://www.w3.org/1999/xlink" x="0" y="0" width="612" height="792" viewBox="0, 0, 612, 792">
  <g id="Layer_1">
    <g>
      <path d="M50.21,134.994 L27.453,64.957 L87.03,21.671 L146.608,64.957 L123.851,134.994 z" fill="#FFFFFF"/>
      <path d="M50.21,134.994 L27.453,64.957 L87.03,21.671 L146.608,64.957 L123.851,134.994 z" fill-opacity="0" stroke="#000000" stroke-width="9" stroke-linejoin="round"/>
    </g>
    <g>
      <path d="M199.217,134.344 L176.461,64.307 L236.038,21.022 L295.616,64.307 L272.859,134.344 z" fill="#FFFFFF"/>
      <path d="M199.217,134.344 L176.461,64.307 L236.038,21.022 L295.616,64.307 L272.859,134.344 z" fill-opacity="0" stroke="#000000" stroke-width="9" stroke-linejoin="round"/>
    </g>
    <path d="M238.202,65.957 L238.202,83.604 L253.498,92.435 L251.246,96.337 L235.986,87.527 L235.47,87.824 L235.467,87.818 L220.675,96.358 L218.422,92.456 L233.703,83.633 L233.697,83.633 L233.697,65.957 L238.202,65.957 z M238.169,83.633 L238.154,83.633 L238.162,83.646 L238.169,83.633 z M233.751,83.633 L233.74,83.633 L233.742,83.638 L233.751,83.633 z" fill="#000000"/>
    <g>
      <path d="M347.413,135.006 L324.656,64.969 L384.234,21.683 L443.811,64.969 L421.055,135.006 z" fill="#FFFFFF"/>
      <path d="M347.413,135.006 L324.656,64.969 L384.234,21.683 L443.811,64.969 L421.055,135.006 z" fill-opacity="0" stroke="#000000" stroke-width="9" stroke-linejoin="round"/>
    </g>
    <path d="M403.853,81.454 L394.39,79.466 L397.531,71.474 C397.61,71.235 397.571,70.957 397.372,70.798 C397.173,70.64 396.895,70.599 396.656,70.719 L388.268,75.21 L383.974,67.538 C383.855,67.34 383.617,67.181 383.378,67.22 C383.139,67.26 382.94,67.419 382.861,67.658 L380.595,75.967 L371.292,73.143 C371.053,73.064 370.775,73.143 370.617,73.382 C370.458,73.581 370.458,73.899 370.617,74.098 L375.666,81.255 L366.917,84.991 C366.678,85.111 366.52,85.348 366.56,85.628 C366.601,85.906 366.799,86.105 367.037,86.184 L376.5,88.172 L373.359,96.123 C373.28,96.362 373.319,96.64 373.518,96.799 C373.717,96.957 373.995,96.997 374.234,96.878 L382.623,92.385 L386.917,100.097 C387.037,100.296 387.236,100.415 387.473,100.415 L387.553,100.415 C387.792,100.375 387.991,100.217 388.07,99.977 L390.336,91.669 L399.638,94.492 C399.877,94.571 400.155,94.492 400.314,94.253 C400.472,94.054 400.472,93.736 400.314,93.537 L395.265,86.381 L403.972,82.606 C404.212,82.486 404.37,82.248 404.33,81.969 C404.289,81.731 404.09,81.492 403.853,81.453 z" fill="#000000" id="Layer_1"/>
    <g>
      <g>
        <path d="M203.849,266 L181.092,195.963 L240.669,152.677 L300.247,195.963 L277.49,266 z" fill="#FFFFFF"/>
        <path d="M203.849,266 L181.092,195.963 L240.669,152.677 L300.247,195.963 L277.49,266 z" fill-opacity="0" stroke="#000000" stroke-width="9" stroke-linejoin="round"/>
      </g>
      <path d="M241.103,197.893 L231.64,195.905 L234.78,187.913 C234.859,187.674 234.821,187.396 234.622,187.237 C234.423,187.079 234.145,187.039 233.906,187.158 L225.518,191.65 L221.224,183.978 C221.104,183.779 220.867,183.621 220.627,183.659 C220.388,183.7 220.189,183.858 220.11,184.097 L217.844,192.406 L208.542,189.582 C208.303,189.503 208.025,189.582 207.867,189.822 C207.708,190.02 207.708,190.339 207.867,190.537 L212.915,197.694 L204.167,201.43 C203.928,201.55 203.77,201.787 203.81,202.067 C203.85,202.345 204.049,202.544 204.287,202.623 L213.749,204.611 L210.609,212.562 C210.53,212.801 210.569,213.079 210.768,213.238 C210.966,213.396 211.244,213.437 211.483,213.317 L219.873,208.824 L224.167,216.536 C224.287,216.735 224.486,216.855 224.723,216.855 L224.802,216.855 C225.041,216.814 225.24,216.656 225.319,216.417 L227.585,208.108 L236.888,210.932 C237.127,211.011 237.405,210.932 237.563,210.692 C237.722,210.494 237.722,210.175 237.563,209.976 L232.514,202.82 L241.222,199.045 C241.461,198.925 241.62,198.688 241.579,198.408 C241.539,198.17 241.34,197.931 241.103,197.892 z" fill="#000000" id="Layer_1"/>
      <path d="M258.49,232.714 C261.909,227.78 258.086,223.951 256.996,222.697 C253.872,219.837 248.678,219.904 245.154,222.204 C234.019,229.475 241.823,248.557 257.271,245.747 C257.779,245.656 261.459,244.739 264.641,242.404 C269.174,238.49 270.448,234.694 271.086,229.152 L275.326,229.327 C275.793,243.868 258.041,256.705 243.671,247.123 C230.239,238.167 234.553,218.309 248.889,216.231 C263.911,214.055 269.783,233.53 257.966,238.599 C253.843,240.368 248.717,238.826 246.896,234.425 C245.626,231.354 245.836,228.47 248.258,227.046 C253.766,224.165 257.003,231.179 252.964,233.387 C250.833,236.08 256.887,235.218 258.491,232.714 z" fill="#000000" id="Layer_1"/>
    </g>
    <g>
      <path d="M348.736,262.692 L325.98,192.655 L385.557,149.369 L445.134,192.655 L422.378,262.692 z" fill="#FFFFFF"/>
      <path d="M348.736,262.692 L325.98,192.655 L385.557,149.369 L445.134,192.655 L422.378,262.692 z" fill-opacity="0" stroke="#000000" stroke-width="9" stroke-linejoin="round"/>
    </g>
    <path d="M391.468,211.543 C394.888,206.61 391.065,202.78 389.974,201.527 C386.851,198.666 381.656,198.733 378.133,201.033 C366.998,208.304 374.802,227.386 390.25,224.577 C390.757,224.485 394.438,223.569 397.62,221.233 C402.153,217.319 403.427,213.524 404.065,207.981 L408.305,208.157 C408.772,222.697 391.02,235.535 376.65,225.953 C363.218,216.997 367.532,197.138 381.868,195.06 C396.89,192.884 402.762,212.359 390.945,217.428 C386.822,219.197 381.695,217.655 379.875,213.254 C378.605,210.184 378.815,207.299 381.237,205.875 C386.745,202.994 389.982,210.008 385.943,212.216 C383.812,214.909 389.866,214.047 391.47,211.544 z" fill="#000000" id="Layer_1"/>
    <g>
      <path d="M204.51,400.302 L181.754,330.265 L241.331,286.979 L300.908,330.265 L278.152,400.302 z" fill="#FFFFFF"/>
      <path d="M204.51,400.302 L181.754,330.265 L241.331,286.979 L300.908,330.265 L278.152,400.302 z" fill-opacity="0" stroke="#000000" stroke-width="9" stroke-linejoin="round"/>
    </g>
    <path d="M243.495,332.576 L243.495,350.223 L258.791,359.054 L256.538,362.956 L241.278,354.146 L240.763,354.444 L240.759,354.437 L225.968,362.977 L223.715,359.075 L238.996,350.252 L238.989,350.252 L238.989,332.576 L243.495,332.576 z M243.462,350.252 L243.447,350.252 L243.454,350.266 L243.462,350.252 z M239.044,350.252 L239.032,350.252 L239.035,350.257 L239.044,350.252 z" fill="#000000"/>
    <g>
      <g>
        <path d="M355.352,396.994 L332.595,326.957 L392.173,283.672 L451.75,326.957 L428.994,396.994 z" fill="#FFFFFF"/>
        <path d="M355.352,396.994 L332.595,326.957 L392.173,283.672 L451.75,326.957 L428.994,396.994 z" fill-opacity="0" stroke="#000000" stroke-width="9" stroke-linejoin="round"/>
      </g>
      <path d="M391.283,330.872 L381.82,328.884 L384.96,320.892 C385.04,320.653 385.001,320.375 384.802,320.216 C384.603,320.058 384.325,320.018 384.086,320.137 L375.698,324.629 L371.404,316.957 C371.284,316.758 371.047,316.599 370.808,316.638 C370.568,316.679 370.37,316.837 370.29,317.076 L368.025,325.385 L358.722,322.561 C358.483,322.482 358.205,322.561 358.047,322.8 C357.888,322.999 357.888,323.318 358.047,323.516 L363.095,330.673 L354.347,334.409 C354.108,334.529 353.95,334.766 353.99,335.046 C354.03,335.324 354.229,335.523 354.467,335.602 L363.929,337.59 L360.789,345.541 C360.71,345.78 360.749,346.058 360.948,346.217 C361.146,346.375 361.424,346.416 361.664,346.296 L370.053,341.803 L374.347,349.515 C374.467,349.714 374.666,349.833 374.903,349.833 L374.982,349.833 C375.222,349.793 375.42,349.635 375.5,349.396 L377.766,341.087 L387.068,343.91 C387.307,343.99 387.585,343.91 387.743,343.671 C387.902,343.473 387.902,343.154 387.743,342.955 L382.695,335.799 L391.402,332.024 C391.641,331.904 391.8,331.667 391.759,331.387 C391.719,331.149 391.52,330.91 391.283,330.871 z" fill="#000000" id="Layer_1"/>
      <path d="M411.538,341.177 L411.538,358.824 L426.834,367.655 L424.581,371.557 L409.321,362.747 L408.806,363.044 L408.802,363.038 L394.011,371.578 L391.758,367.676 L407.039,358.853 L407.032,358.853 L407.032,341.177 L411.538,341.177 z M411.505,358.853 L411.49,358.853 L411.497,358.866 L411.505,358.853 z M407.087,358.853 L407.075,358.853 L407.078,358.858 L407.087,358.853 z" fill="#000000"/>
    </g>
    <g>
      <path d="M41.098,535.528 L18.342,465.49 L77.919,422.205 L137.496,465.49 L114.74,535.528 z" fill="#FFFFFF"/>
      <path d="M41.098,535.528 L18.342,465.49 L77.919,422.205 L137.496,465.49 L114.74,535.528 z" fill-opacity="0" stroke="#000000" stroke-width="9" stroke-linejoin="round"/>
    </g>
    <path d="M73.721,471.39 L64.259,469.402 L67.399,461.41 C67.478,461.171 67.439,460.893 67.24,460.735 C67.042,460.576 66.764,460.536 66.524,460.655 L58.137,465.147 L53.842,457.475 C53.723,457.276 53.485,457.118 53.246,457.156 C53.007,457.197 52.808,457.355 52.729,457.594 L50.463,465.903 L41.161,463.079 C40.921,463 40.643,463.079 40.485,463.319 C40.327,463.517 40.327,463.836 40.485,464.035 L45.534,471.191 L36.786,474.927 C36.547,475.047 36.388,475.285 36.428,475.564 C36.469,475.842 36.668,476.041 36.905,476.12 L46.368,478.108 L43.228,486.059 C43.148,486.299 43.187,486.577 43.386,486.735 C43.585,486.893 43.863,486.934 44.102,486.814 L52.492,482.321 L56.786,490.033 C56.905,490.232 57.104,490.352 57.342,490.352 L57.421,490.352 C57.66,490.311 57.859,490.153 57.938,489.914 L60.204,481.605 L69.506,484.429 C69.745,484.508 70.023,484.429 70.182,484.189 C70.34,483.991 70.34,483.672 70.182,483.474 L65.133,476.317 L73.841,472.542 C74.08,472.422 74.238,472.185 74.198,471.905 C74.157,471.667 73.959,471.428 73.721,471.389 z" fill="#000000" id="Layer_1"/>
    <g>
      <g>
        <path d="M203.849,532.22 L181.092,462.182 L240.669,418.897 L300.247,462.182 L277.49,532.22 z" fill="#FFFFFF"/>
        <path d="M203.849,532.22 L181.092,462.182 L240.669,418.897 L300.247,462.182 L277.49,532.22 z" fill-opacity="0" stroke="#000000" stroke-width="9" stroke-linejoin="round"/>
      </g>
      <path d="M242.426,463.451 L232.963,461.463 L236.103,453.471 C236.183,453.232 236.144,452.954 235.945,452.796 C235.746,452.637 235.468,452.597 235.229,452.716 L226.841,457.208 L222.547,449.536 C222.427,449.337 222.19,449.179 221.951,449.217 C221.711,449.258 221.513,449.416 221.433,449.655 L219.168,457.964 L209.865,455.14 C209.626,455.061 209.348,455.14 209.19,455.38 C209.031,455.578 209.031,455.897 209.19,456.096 L214.238,463.252 L205.49,466.988 C205.251,467.108 205.093,467.346 205.133,467.625 C205.173,467.903 205.372,468.102 205.61,468.181 L215.072,470.169 L211.932,478.12 C211.853,478.359 211.892,478.638 212.091,478.796 C212.289,478.954 212.567,478.995 212.807,478.875 L221.196,474.382 L225.49,482.094 C225.61,482.293 225.809,482.413 226.046,482.413 L226.126,482.413 C226.365,482.372 226.563,482.214 226.643,481.975 L228.908,473.666 L238.211,476.49 C238.45,476.569 238.728,476.49 238.886,476.25 C239.045,476.052 239.045,475.733 238.886,475.534 L233.838,468.378 L242.545,464.603 C242.784,464.483 242.943,464.246 242.902,463.966 C242.862,463.728 242.663,463.489 242.426,463.45 z" fill="#000000" id="Layer_1"/>
      <path d="M259.813,499.595 C263.232,494.662 259.409,490.832 258.319,489.579 C255.196,486.718 250.001,486.785 246.477,489.085 C235.342,496.356 243.146,515.438 258.594,512.629 C259.102,512.537 262.782,511.621 265.964,509.285 C270.498,505.371 271.771,501.576 272.409,496.033 L276.649,496.209 C277.117,510.749 259.364,523.586 244.994,514.005 C231.562,505.049 235.876,485.19 250.212,483.112 C265.234,480.936 271.107,500.411 259.29,505.48 C255.166,507.249 250.04,505.707 248.22,501.306 C246.949,498.236 247.159,495.351 249.582,493.927 C255.089,491.046 258.327,498.06 254.287,500.268 C252.157,502.961 258.21,502.099 259.814,499.596 z" fill="#000000" id="Layer_1"/>
    </g>
    <g>
      <path d="M357.337,529.573 L334.58,459.536 L394.158,416.251 L453.735,459.536 L430.978,529.573 z" fill="#FFFFFF"/>
      <path d="M357.337,529.573 L334.58,459.536 L394.158,416.251 L453.735,459.536 L430.978,529.573 z" fill-opacity="0" stroke="#000000" stroke-width="9" stroke-linejoin="round"/>
    </g>
    <path d="M399.408,480.056 C402.827,475.122 399.004,471.292 397.914,470.039 C394.79,467.178 389.596,467.245 386.072,469.545 C374.937,476.816 382.741,495.898 398.189,493.089 C398.696,492.997 402.377,492.081 405.559,489.745 C410.092,485.832 411.366,482.036 412.004,476.493 L416.244,476.669 C416.711,491.21 398.959,504.047 384.589,494.465 C371.157,485.509 375.471,465.65 389.807,463.573 C404.829,461.397 410.701,480.872 398.884,485.941 C394.761,487.71 389.634,486.167 387.814,481.766 C386.544,478.696 386.754,475.812 389.176,474.388 C394.684,471.507 397.921,478.52 393.882,480.728 C391.751,483.421 397.805,482.56 399.409,480.056 z" fill="#000000" id="Layer_1"/>
    <g>
      <g>
        <path d="M49.037,269.308 L26.281,199.271 L85.858,155.985 L145.436,199.271 L122.679,269.308 z" fill="#FFFFFF"/>
        <path d="M49.037,269.308 L26.281,199.271 L85.858,155.985 L145.436,199.271 L122.679,269.308 z" fill-opacity="0" stroke="#000000" stroke-width="9" stroke-linejoin="round"/>
      </g>
      <path d="M77.691,201.201 L68.228,199.213 L71.368,191.221 C71.448,190.982 71.409,190.704 71.21,190.545 C71.011,190.387 70.733,190.347 70.494,190.466 L62.106,194.958 L57.812,187.286 C57.692,187.087 57.455,186.928 57.216,186.967 C56.976,187.008 56.778,187.166 56.698,187.405 L54.433,195.714 L45.13,192.89 C44.891,192.811 44.613,192.89 44.455,193.129 C44.296,193.328 44.296,193.647 44.455,193.845 L49.503,201.002 L40.755,204.738 C40.516,204.858 40.358,205.095 40.398,205.375 C40.438,205.653 40.637,205.852 40.875,205.931 L50.337,207.919 L47.197,215.87 C47.118,216.109 47.157,216.387 47.356,216.546 C47.554,216.704 47.832,216.745 48.072,216.625 L56.461,212.132 L60.755,219.844 C60.875,220.043 61.074,220.162 61.311,220.162 L61.39,220.162 C61.63,220.122 61.828,219.964 61.908,219.725 L64.173,211.416 L73.476,214.239 C73.715,214.319 73.993,214.239 74.151,214 C74.31,213.802 74.31,213.483 74.151,213.284 L69.103,206.128 L77.81,202.353 C78.049,202.233 78.208,201.995 78.167,201.716 C78.127,201.478 77.928,201.239 77.691,201.2 z" fill="#000000" id="Layer_1"/>
      <path d="M114.264,204.266 C117.683,199.332 113.86,195.502 112.77,194.249 C109.647,191.389 104.452,191.455 100.928,193.755 C89.793,201.027 97.597,220.108 113.045,217.299 C113.553,217.207 117.233,216.291 120.415,213.955 C124.948,210.042 126.222,206.246 126.86,200.704 L131.1,200.879 C131.568,215.42 113.815,228.257 99.445,218.675 C86.013,209.719 90.327,189.86 104.663,187.783 C119.685,185.607 125.558,205.082 113.741,210.151 C109.617,211.92 104.491,210.378 102.671,205.976 C101.4,202.906 101.61,200.022 104.033,198.598 C109.54,195.717 112.778,202.731 108.738,204.939 C106.608,207.632 112.661,206.77 114.265,204.266 z" fill="#000000" id="Layer_1"/>
      <path d="M101.468,237.895 L92.005,235.907 L95.145,227.915 C95.225,227.676 95.186,227.398 94.987,227.24 C94.788,227.081 94.51,227.041 94.271,227.16 L85.883,231.652 L81.589,223.98 C81.469,223.781 81.232,223.623 80.993,223.661 C80.753,223.702 80.555,223.86 80.475,224.099 L78.21,232.408 L68.907,229.584 C68.668,229.505 68.39,229.584 68.232,229.824 C68.073,230.022 68.073,230.341 68.232,230.54 L73.28,237.696 L64.532,241.432 C64.293,241.552 64.135,241.79 64.175,242.069 C64.215,242.347 64.414,242.546 64.652,242.625 L74.114,244.613 L70.974,252.564 C70.895,252.803 70.934,253.081 71.133,253.24 C71.331,253.398 71.609,253.439 71.849,253.319 L80.238,248.826 L84.532,256.538 C84.652,256.737 84.851,256.857 85.088,256.857 L85.168,256.857 C85.407,256.816 85.605,256.658 85.685,256.419 L87.951,248.11 L97.253,250.934 C97.492,251.013 97.77,250.934 97.928,250.694 C98.087,250.496 98.087,250.177 97.928,249.978 L92.88,242.822 L101.587,239.047 C101.826,238.927 101.985,238.69 101.944,238.41 C101.904,238.172 101.705,237.933 101.468,237.894 z" fill="#000000" id="Layer_1"/>
    </g>
    <g>
      <g>
        <path d="M47.053,400.302 L24.296,330.265 L83.873,286.979 L143.451,330.265 L120.694,400.302 z" fill="#FFFFFF"/>
        <path d="M47.053,400.302 L24.296,330.265 L83.873,286.979 L143.451,330.265 L120.694,400.302 z" fill-opacity="0" stroke="#000000" stroke-width="9" stroke-linejoin="round"/>
      </g>
      <path d="M68.836,318.683 L68.836,336.33 L84.132,345.161 L81.879,349.063 L66.62,340.253 L66.104,340.55 L66.1,340.544 L51.309,349.084 L49.056,345.182 L64.337,336.359 L64.33,336.359 L64.33,318.683 L68.836,318.683 z M68.803,336.359 L68.788,336.359 L68.795,336.372 L68.803,336.359 z M64.385,336.359 L64.373,336.359 L64.376,336.364 L64.385,336.359 z" fill="#000000"/>
      <path d="M100.21,345.203 L100.21,362.85 L115.506,371.681 L113.253,375.583 L97.993,366.773 L97.477,367.07 L97.474,367.064 L82.682,375.604 L80.43,371.702 L95.711,362.879 L95.704,362.879 L95.704,345.203 L100.21,345.203 z M100.177,362.879 L100.161,362.879 L100.169,362.892 L100.177,362.879 z M95.758,362.879 L95.747,362.879 L95.75,362.884 L95.758,362.879 z" fill="#000000"/>
    </g>
    <path d="M113.376,496.575 L103.914,494.587 L107.054,486.595 C107.133,486.356 107.094,486.078 106.896,485.92 C106.697,485.762 106.419,485.721 106.18,485.841 L97.792,490.332 L93.498,482.66 C93.378,482.461 93.14,482.303 92.901,482.342 C92.662,482.382 92.463,482.541 92.384,482.78 L90.118,491.088 L80.816,488.265 C80.577,488.186 80.299,488.265 80.14,488.504 C79.982,488.703 79.982,489.021 80.14,489.22 L85.189,496.376 L76.441,500.113 C76.202,500.232 76.043,500.47 76.084,500.749 C76.124,501.027 76.323,501.226 76.56,501.305 L86.023,503.293 L82.883,511.245 C82.804,511.484 82.842,511.762 83.041,511.92 C83.24,512.079 83.518,512.119 83.757,511.999 L92.147,507.507 L96.441,515.219 C96.56,515.417 96.759,515.537 96.997,515.537 L97.076,515.537 C97.315,515.497 97.514,515.338 97.593,515.099 L99.859,506.791 L109.161,509.614 C109.401,509.693 109.679,509.614 109.837,509.375 C109.995,509.176 109.995,508.858 109.837,508.659 L104.788,501.503 L113.496,497.727 C113.735,497.608 113.893,497.37 113.853,497.09 C113.813,496.853 113.614,496.614 113.376,496.575 z" fill="#000000" id="Layer_1"/>
  </g>
</svg>
