<svg xmlns="http://www.w3.org/2000/svg" width="129.155" height="123.323" xmlns:v="https://vecta.io/nano"><path d="M28.256 118.823L5.5 48.785 65.077 5.5l59.577 43.285-22.756 70.038z" fill="#fff"/><path d="M28.256 118.823L5.5 48.785 65.077 5.5l59.577 43.285-22.756 70.038z" fill-opacity="0" stroke="#000" stroke-width="9" stroke-linejoin="round"/><path d="M60.879 54.685l-9.462-1.988 3.14-7.992c.079-.239.04-.517-.159-.675a.67.67 0 0 0-.716-.08l-8.387 4.492L41 40.77c-.119-.199-.357-.357-.596-.319a.65.65 0 0 0-.517.438l-2.266 8.309-9.302-2.824c-.24-.079-.518 0-.676.24a.6.6 0 0 0 0 .716l5.049 7.156-8.748 3.736c-.239.12-.398.358-.358.637s.24.477.477.556l9.463 1.988-3.14 7.951c-.08.24-.041.518.158.676a.67.67 0 0 0 .716.079l8.39-4.493 4.294 7.712c.119.199.318.319.556.319h.079a.65.65 0 0 0 .517-.438l2.266-8.309 9.302 2.824c.239.079.517 0 .676-.24a.6.6 0 0 0 0-.715l-5.049-7.157 8.708-3.775c.239-.12.397-.357.357-.637-.041-.238-.239-.477-.477-.516zm39.655 25.185l-9.462-1.988 3.14-7.992c.079-.239.04-.517-.158-.675a.67.67 0 0 0-.716-.079l-8.388 4.491-4.294-7.672c-.12-.199-.358-.357-.597-.318s-.438.199-.517.438l-2.266 8.308-9.302-2.823c-.239-.079-.517 0-.676.239a.6.6 0 0 0 0 .716l5.049 7.156-8.748 3.737c-.239.119-.398.357-.357.636s.239.477.476.556l9.463 1.988-3.14 7.952c-.079.239-.041.517.158.675a.67.67 0 0 0 .716.079l8.39-4.492 4.294 7.712c.119.198.318.318.556.318h.079c.239-.04.438-.199.517-.438l2.266-8.308 9.302 2.823c.24.079.518 0 .676-.239a.6.6 0 0 0 0-.716l-5.049-7.156 8.708-3.776c.239-.119.397-.357.357-.637-.04-.237-.239-.476-.477-.515z"/></svg>