<svg xmlns="http://www.w3.org/2000/svg" width="129.155" height="123.323" xmlns:v="https://vecta.io/nano"><path d="M28.257 118.823L5.5 48.786 65.078 5.5l59.577 43.286-22.756 70.037z" fill="#fff"/><path d="M28.257 118.823L5.5 48.786 65.078 5.5l59.577 43.286-22.756 70.037z" fill-opacity="0" stroke="#000" stroke-width="9" stroke-linejoin="round"/><path d="M84.697 65.271l-9.463-1.988 3.141-7.992c.079-.239.04-.517-.159-.676a.67.67 0 0 0-.716-.079l-8.388 4.491-4.294-7.672c-.119-.198-.357-.357-.596-.318s-.438.199-.517.438l-2.266 8.309-9.303-2.824c-.239-.079-.517 0-.675.239a.6.6 0 0 0 0 .716l5.049 7.157-8.749 3.736c-.239.12-.397.357-.357.637s.239.477.477.556l9.463 1.988-3.141 7.951c-.079.239-.04.517.159.676a.67.67 0 0 0 .716.079l8.389-4.493 4.294 7.712c.12.199.319.318.556.318h.08c.239-.04.438-.198.517-.438l2.266-8.308 9.302 2.823c.239.079.517 0 .676-.239a.6.6 0 0 0 0-.716l-5.049-7.156 8.707-3.775c.24-.12.398-.358.358-.637-.041-.238-.24-.477-.477-.516z"/></svg>