<svg xmlns="http://www.w3.org/2000/svg" width="129.155" height="123.323" xmlns:v="https://vecta.io/nano"><path d="M28.256 118.823L5.5 48.786 65.077 5.5l59.578 43.286-22.757 70.037z" fill="#fff"/><path d="M28.256 118.823L5.5 48.786 65.077 5.5l59.578 43.286-22.757 70.037z" fill-opacity="0" stroke="#000" stroke-width="9" stroke-linejoin="round"/><path d="M56.91 50.716l-9.463-1.988 3.14-7.992c.08-.239.041-.517-.158-.676a.67.67 0 0 0-.716-.079l-8.388 4.492-4.294-7.672c-.12-.199-.357-.358-.596-.319a.65.65 0 0 0-.518.438l-2.265 8.309-9.303-2.824c-.239-.079-.517 0-.675.239a.6.6 0 0 0 0 .716l5.048 7.157-8.748 3.736c-.239.12-.397.357-.357.637s.239.477.477.556l9.462 1.988-3.14 7.951c-.079.239-.04.517.159.676a.67.67 0 0 0 .716.079l8.389-4.493 4.294 7.712c.12.199.319.318.556.318h.079c.24-.04.438-.198.518-.437l2.265-8.309 9.303 2.823c.239.08.517 0 .675-.239a.6.6 0 0 0 0-.716l-5.048-7.156 8.707-3.775c.239-.12.398-.358.357-.637-.04-.238-.239-.477-.476-.516zm36.573 3.065c3.419-4.934-.404-8.764-1.494-10.017-3.123-2.86-8.318-2.794-11.842-.494-11.135 7.272-3.331 26.353 12.117 23.544.508-.092 4.188-1.008 7.37-3.344 4.533-3.913 5.807-7.709 6.445-13.251l4.24.175c.468 14.541-17.285 27.378-31.655 17.796-13.432-8.956-9.118-28.815 5.218-30.892 15.022-2.176 20.895 17.299 9.078 22.368-4.124 1.769-9.25.227-11.07-4.175-1.271-3.07-1.061-5.954 1.362-7.378 5.507-2.881 8.745 4.133 4.705 6.341-2.13 2.693 3.923 1.831 5.527-.673zM80.687 87.41l-9.463-1.988 3.14-7.992c.08-.239.041-.517-.158-.675a.67.67 0 0 0-.716-.08l-8.388 4.492-4.294-7.672c-.12-.199-.357-.357-.596-.319a.65.65 0 0 0-.518.438l-2.265 8.309-9.303-2.824c-.239-.079-.517 0-.675.24a.6.6 0 0 0 0 .716l5.048 7.156-8.748 3.736c-.239.12-.397.358-.357.637a.69.69 0 0 0 .477.556l9.462 1.988-3.14 7.951c-.079.239-.04.517.159.676a.67.67 0 0 0 .716.079l8.389-4.493 4.294 7.712c.12.199.319.319.556.319h.08a.65.65 0 0 0 .517-.438l2.266-8.309 9.302 2.824c.239.079.517 0 .675-.24a.6.6 0 0 0 0-.716l-5.048-7.156 8.707-3.775c.239-.12.398-.357.357-.637-.04-.238-.239-.477-.476-.516z"/></svg>