<svg xmlns="http://www.w3.org/2000/svg" width="129.155" height="123.323" xmlns:v="https://vecta.io/nano"><path d="M28.257 118.823L5.5 48.786 65.077 5.5l59.578 43.286-22.757 70.037z" fill="#fff"/><path d="M28.257 118.823L5.5 48.786 65.077 5.5l59.578 43.286-22.757 70.037z" fill-opacity="0" stroke="#000" stroke-width="9" stroke-linejoin="round"/><path d="M65.511 50.716l-9.463-1.988 3.14-7.992c.079-.239.041-.517-.158-.676a.67.67 0 0 0-.716-.079l-8.388 4.492-4.294-7.672c-.12-.199-.357-.357-.597-.319a.65.65 0 0 0-.517.438l-2.266 8.309-9.302-2.824c-.239-.079-.517 0-.675.24-.159.198-.159.517 0 .715l5.048 7.157-8.748 3.736c-.239.12-.397.357-.357.637s.239.477.477.556l9.462 1.988-3.14 7.951c-.079.239-.04.517.159.676s.476.199.715.079l8.39-4.493 4.294 7.712c.12.199.319.319.556.319h.079a.65.65 0 0 0 .517-.438l2.266-8.309 9.303 2.824c.239.079.517 0 .675-.24a.6.6 0 0 0 0-.716l-5.049-7.156 8.708-3.775c.239-.12.398-.357.357-.637-.04-.238-.239-.477-.476-.516zm17.387 34.821c3.419-4.934-.404-8.763-1.494-10.017-3.124-2.86-8.318-2.793-11.842-.493-11.135 7.271-3.331 26.353 12.117 23.543.508-.091 4.188-1.008 7.37-3.343 4.533-3.914 5.807-7.71 6.445-13.252l4.24.175c.467 14.541-17.285 27.378-31.655 17.796-13.432-8.956-9.118-28.814 5.218-30.892 15.022-2.176 20.894 17.299 9.077 22.368-4.123 1.769-9.249.227-11.07-4.174-1.27-3.071-1.06-5.955 1.362-7.379 5.508-2.881 8.745 4.133 4.706 6.341-2.131 2.693 3.923 1.831 5.527-.673z"/></svg>