<svg xmlns="http://www.w3.org/2000/svg" width="129.155" height="123.323" xmlns:v="https://vecta.io/nano"><path d="M28.256 118.823L5.5 48.786 65.077 5.5l59.577 43.286-22.756 70.037z" fill="#fff"/><path d="M28.256 118.823L5.5 48.786 65.077 5.5l59.577 43.286-22.756 70.037z" fill-opacity="0" stroke="#000" stroke-width="9" stroke-linejoin="round"/><path d="M70.988 67.674c3.42-4.933-.403-8.763-1.494-10.016-3.123-2.861-8.318-2.794-11.841-.494-11.135 7.271-3.331 26.353 12.117 23.544.507-.092 4.188-1.008 7.37-3.344 4.533-3.914 5.807-7.709 6.445-13.252l4.24.176c.467 14.54-17.285 27.378-31.655 17.796-13.432-8.956-9.118-28.815 5.218-30.893 15.022-2.176 20.894 17.299 9.077 22.368-4.123 1.769-9.25.227-11.07-4.174-1.27-3.07-1.06-5.955 1.362-7.379 5.508-2.881 8.745 4.133 4.706 6.341-2.131 2.693 3.923 1.831 5.527-.672z"/></svg>