<svg xmlns="http://www.w3.org/2000/svg" width="129.155" height="123.323" xmlns:v="https://vecta.io/nano"><path d="M28.257 118.823L5.5 48.786 65.077 5.5l59.578 43.286-22.757 70.037z" fill="#fff"/><path d="M28.257 118.823L5.5 48.786 65.077 5.5l59.578 43.286-22.757 70.037z" fill-opacity="0" stroke="#000" stroke-width="9" stroke-linejoin="round"/><path d="M50.04 37.204v17.647l15.296 8.831-2.253 3.902-15.259-8.81-.516.297-.004-.006-14.791 8.54-2.253-3.902 15.281-8.823h-.007V37.204h4.506zm-.033 17.676h-.015l.007.013.008-.013zm-4.418 0h-.012l.003.005.009-.005zm35.825 8.844v17.647l15.296 8.831-2.253 3.902-15.26-8.81-.516.297-.003-.006-14.792 8.54-2.252-3.902L76.915 81.4h-.007V63.724h4.506zM81.381 81.4h-.016l.008.013.008-.013zm-4.419 0h-.011l.003.005.008-.005z"/></svg>