<svg xmlns="http://www.w3.org/2000/svg" width="129.155" height="123.323" xmlns:v="https://vecta.io/nano"><path d="M28.257 118.822L5.5 48.785 65.078 5.5l59.577 43.285-22.756 70.037z" fill="#fff"/><path d="M28.257 118.822L5.5 48.785 65.078 5.5l59.577 43.285-22.756 70.037z" fill-opacity="0" stroke="#000" stroke-width="9" stroke-linejoin="round"/><path d="M64.188 52.7l-9.463-1.988 3.14-7.992c.08-.239.041-.517-.158-.676a.67.67 0 0 0-.716-.079l-8.388 4.492-4.294-7.672c-.12-.199-.357-.358-.596-.319a.65.65 0 0 0-.518.438l-2.265 8.309-9.303-2.824c-.239-.079-.517 0-.675.239a.6.6 0 0 0 0 .716L36 52.501l-8.748 3.736c-.239.12-.397.357-.357.637s.239.477.477.556l9.462 1.988-3.14 7.951c-.079.239-.04.517.159.676a.67.67 0 0 0 .716.079l8.389-4.493 4.294 7.712c.12.199.319.318.556.318h.079c.24-.04.438-.198.518-.437l2.266-8.309 9.302 2.823c.239.08.517 0 .675-.239a.6.6 0 0 0 0-.716L55.6 57.627l8.707-3.775c.239-.12.398-.357.357-.637-.04-.238-.239-.477-.476-.516zm20.255 10.305v17.647l15.296 8.831-2.253 3.902-15.26-8.81-.515.297-.004-.006-14.791 8.54-2.253-3.902 15.281-8.823h-.007V63.005h4.506zm-.033 17.676h-.015l.007.013.008-.013zm-4.418 0h-.012l.003.005.009-.005z"/></svg>