<?xml version="1.0" encoding="UTF-8"?>
<!DOCTYPE svg PUBLIC "-//W3C//DTD SVG 1.1//EN" "http://www.w3.org/Graphics/SVG/1.1/DTD/svg11.dtd">
<svg version="1.1" xmlns="http://www.w3.org/2000/svg" xmlns:xlink="http://www.w3.org/1999/xlink" x="0" y="0" width="129.155" height="123.323" viewBox="0, 0, 129.155, 123.323">
  <g id="Layer_1" transform="translate(-12.842, -416.705)">
    <g>
      <path d="M41.098,535.528 L18.342,465.49 L77.919,422.205 L137.496,465.49 L114.74,535.528 z" fill="#FFFFFF"/>
      <path d="M41.098,535.528 L18.342,465.49 L77.919,422.205 L137.496,465.49 L114.74,535.528 z" fill-opacity="0" stroke="#000000" stroke-width="9" stroke-linejoin="round"/>
    </g>
    <path d="M73.721,471.39 L64.259,469.402 L67.399,461.41 C67.478,461.171 67.439,460.893 67.24,460.735 C67.042,460.576 66.764,460.536 66.524,460.655 L58.137,465.147 L53.842,457.475 C53.723,457.276 53.485,457.118 53.246,457.156 C53.007,457.197 52.808,457.355 52.729,457.594 L50.463,465.903 L41.161,463.079 C40.921,463 40.643,463.079 40.485,463.319 C40.327,463.517 40.327,463.836 40.485,464.035 L45.534,471.191 L36.786,474.927 C36.547,475.047 36.388,475.285 36.428,475.564 C36.469,475.842 36.668,476.041 36.905,476.12 L46.368,478.108 L43.228,486.059 C43.148,486.299 43.187,486.577 43.386,486.735 C43.585,486.893 43.863,486.934 44.102,486.814 L52.492,482.321 L56.786,490.033 C56.905,490.232 57.104,490.352 57.342,490.352 L57.421,490.352 C57.66,490.311 57.859,490.153 57.938,489.914 L60.204,481.605 L69.506,484.429 C69.745,484.508 70.023,484.429 70.182,484.189 C70.34,483.991 70.34,483.672 70.182,483.474 L65.133,476.317 L73.841,472.542 C74.08,472.422 74.238,472.185 74.198,471.905 C74.157,471.667 73.959,471.428 73.721,471.389 z" fill="#000000" id="Layer_1"/>
    <path d="M113.376,496.575 L103.914,494.587 L107.054,486.595 C107.133,486.356 107.094,486.078 106.896,485.92 C106.697,485.762 106.419,485.721 106.18,485.841 L97.792,490.332 L93.498,482.66 C93.378,482.461 93.14,482.303 92.901,482.342 C92.662,482.382 92.463,482.541 92.384,482.78 L90.118,491.088 L80.816,488.265 C80.577,488.186 80.299,488.265 80.14,488.504 C79.982,488.703 79.982,489.021 80.14,489.22 L85.189,496.376 L76.441,500.113 C76.202,500.232 76.043,500.47 76.084,500.749 C76.124,501.027 76.323,501.226 76.56,501.305 L86.023,503.293 L82.883,511.245 C82.804,511.484 82.842,511.762 83.041,511.92 C83.24,512.079 83.518,512.119 83.757,511.999 L92.147,507.507 L96.441,515.219 C96.56,515.417 96.759,515.537 96.997,515.537 L97.076,515.537 C97.315,515.497 97.514,515.338 97.593,515.099 L99.859,506.791 L109.161,509.614 C109.401,509.693 109.679,509.614 109.837,509.375 C109.995,509.176 109.995,508.858 109.837,508.659 L104.788,501.503 L113.496,497.727 C113.735,497.608 113.893,497.37 113.853,497.09 C113.813,496.853 113.614,496.614 113.376,496.575 z" fill="#000000" id="Layer_1"/>
  </g>
</svg>
