<?xml version="1.0" encoding="UTF-8"?>
<!DOCTYPE svg PUBLIC "-//W3C//DTD SVG 1.1//EN" "http://www.w3.org/Graphics/SVG/1.1/DTD/svg11.dtd">
<svg version="1.1" xmlns="http://www.w3.org/2000/svg" xmlns:xlink="http://www.w3.org/1999/xlink" x="0" y="0" width="129.155" height="123.323" viewBox="0, 0, 129.155, 123.323">
  <g id="Layer_1" transform="translate(-175.592, -413.397)">
    <g>
      <g>
        <path d="M203.849,532.22 L181.092,462.182 L240.669,418.897 L300.247,462.182 L277.49,532.22 z" fill="#FFFFFF"/>
        <path d="M203.849,532.22 L181.092,462.182 L240.669,418.897 L300.247,462.182 L277.49,532.22 z" fill-opacity="0" stroke="#000000" stroke-width="9" stroke-linejoin="round"/>
      </g>
      <path d="M242.426,463.451 L232.963,461.463 L236.103,453.471 C236.183,453.232 236.144,452.954 235.945,452.796 C235.746,452.637 235.468,452.597 235.229,452.716 L226.841,457.208 L222.547,449.536 C222.427,449.337 222.19,449.179 221.951,449.217 C221.711,449.258 221.513,449.416 221.433,449.655 L219.168,457.964 L209.865,455.14 C209.626,455.061 209.348,455.14 209.19,455.38 C209.031,455.578 209.031,455.897 209.19,456.096 L214.238,463.252 L205.49,466.988 C205.251,467.108 205.093,467.346 205.133,467.625 C205.173,467.903 205.372,468.102 205.61,468.181 L215.072,470.169 L211.932,478.12 C211.853,478.359 211.892,478.638 212.091,478.796 C212.289,478.954 212.567,478.995 212.807,478.875 L221.196,474.382 L225.49,482.094 C225.61,482.293 225.809,482.413 226.046,482.413 L226.126,482.413 C226.365,482.372 226.563,482.214 226.643,481.975 L228.908,473.666 L238.211,476.49 C238.45,476.569 238.728,476.49 238.886,476.25 C239.045,476.052 239.045,475.733 238.886,475.534 L233.838,468.378 L242.545,464.603 C242.784,464.483 242.943,464.246 242.902,463.966 C242.862,463.728 242.663,463.489 242.426,463.45 z" fill="#000000" id="Layer_1"/>
      <path d="M259.813,499.595 C263.232,494.662 259.409,490.832 258.319,489.579 C255.196,486.718 250.001,486.785 246.477,489.085 C235.342,496.356 243.146,515.438 258.594,512.629 C259.102,512.537 262.782,511.621 265.964,509.285 C270.498,505.371 271.771,501.576 272.409,496.033 L276.649,496.209 C277.117,510.749 259.364,523.586 244.994,514.005 C231.562,505.049 235.876,485.19 250.212,483.112 C265.234,480.936 271.107,500.411 259.29,505.48 C255.166,507.249 250.04,505.707 248.22,501.306 C246.949,498.236 247.159,495.351 249.582,493.927 C255.089,491.046 258.327,498.06 254.287,500.268 C252.157,502.961 258.21,502.099 259.814,499.596 z" fill="#000000" id="Layer_1"/>
    </g>
  </g>
</svg>
