<?xml version="1.0" encoding="UTF-8"?>
<!DOCTYPE svg PUBLIC "-//W3C//DTD SVG 1.1//EN" "http://www.w3.org/Graphics/SVG/1.1/DTD/svg11.dtd">
<svg version="1.1" xmlns="http://www.w3.org/2000/svg" xmlns:xlink="http://www.w3.org/1999/xlink" x="0" y="0" width="129.155" height="123.323" viewBox="0, 0, 129.155, 123.323">
  <g id="Layer_1" transform="translate(-329.08, -410.751)">
    <g>
      <path d="M357.337,529.573 L334.58,459.536 L394.158,416.251 L453.735,459.536 L430.978,529.573 z" fill="#FFFFFF"/>
      <path d="M357.337,529.573 L334.58,459.536 L394.158,416.251 L453.735,459.536 L430.978,529.573 z" fill-opacity="0" stroke="#000000" stroke-width="9" stroke-linejoin="round"/>
    </g>
    <path d="M399.408,480.056 C402.827,475.122 399.004,471.292 397.914,470.039 C394.79,467.178 389.596,467.245 386.072,469.545 C374.937,476.816 382.741,495.898 398.189,493.089 C398.696,492.997 402.377,492.081 405.559,489.745 C410.092,485.832 411.366,482.036 412.004,476.493 L416.244,476.669 C416.711,491.21 398.959,504.047 384.589,494.465 C371.157,485.509 375.471,465.65 389.807,463.573 C404.829,461.397 410.701,480.872 398.884,485.941 C394.761,487.71 389.634,486.167 387.814,481.766 C386.544,478.696 386.754,475.812 389.176,474.388 C394.684,471.507 397.921,478.52 393.882,480.728 C391.751,483.421 397.805,482.56 399.409,480.056 z" fill="#000000" id="Layer_1"/>
  </g>
</svg>
