<?xml version="1.0" encoding="UTF-8"?>
<!DOCTYPE svg PUBLIC "-//W3C//DTD SVG 1.1//EN" "http://www.w3.org/Graphics/SVG/1.1/DTD/svg11.dtd">
<svg version="1.1" xmlns="http://www.w3.org/2000/svg" xmlns:xlink="http://www.w3.org/1999/xlink" x="0" y="0" width="129.155" height="123.323" viewBox="0, 0, 129.155, 123.323">
  <g id="Layer_1" transform="translate(-170.961, -15.522)">
    <g>
      <path d="M199.217,134.344 L176.461,64.307 L236.038,21.022 L295.616,64.307 L272.859,134.344 z" fill="#FFFFFF"/>
      <path d="M199.217,134.344 L176.461,64.307 L236.038,21.022 L295.616,64.307 L272.859,134.344 z" fill-opacity="0" stroke="#000000" stroke-width="9" stroke-linejoin="round"/>
    </g>
    <path d="M238.202,65.957 L238.202,83.604 L253.498,92.435 L251.246,96.337 L235.986,87.527 L235.47,87.824 L235.467,87.818 L220.675,96.358 L218.422,92.456 L233.703,83.633 L233.697,83.633 L233.697,65.957 L238.202,65.957 z M238.169,83.633 L238.154,83.633 L238.162,83.646 L238.169,83.633 z M233.751,83.633 L233.74,83.633 L233.742,83.638 L233.751,83.633 z" fill="#000000"/>
  </g>
</svg>
