<?xml version="1.0" encoding="UTF-8"?>
<!DOCTYPE svg PUBLIC "-//W3C//DTD SVG 1.1//EN" "http://www.w3.org/Graphics/SVG/1.1/DTD/svg11.dtd">
<svg version="1.1" xmlns="http://www.w3.org/2000/svg" xmlns:xlink="http://www.w3.org/1999/xlink" x="0" y="0" width="129.155" height="123.323" viewBox="0, 0, 129.155, 123.323">
  <g id="Layer_1" transform="translate(-319.156, -16.183)">
    <g>
      <path d="M347.413,135.006 L324.656,64.969 L384.234,21.683 L443.811,64.969 L421.055,135.006 z" fill="#FFFFFF"/>
      <path d="M347.413,135.006 L324.656,64.969 L384.234,21.683 L443.811,64.969 L421.055,135.006 z" fill-opacity="0" stroke="#000000" stroke-width="9" stroke-linejoin="round"/>
    </g>
    <path d="M403.853,81.454 L394.39,79.466 L397.531,71.474 C397.61,71.235 397.571,70.957 397.372,70.798 C397.173,70.64 396.895,70.599 396.656,70.719 L388.268,75.21 L383.974,67.538 C383.855,67.34 383.617,67.181 383.378,67.22 C383.139,67.26 382.94,67.419 382.861,67.658 L380.595,75.967 L371.292,73.143 C371.053,73.064 370.775,73.143 370.617,73.382 C370.458,73.581 370.458,73.899 370.617,74.098 L375.666,81.255 L366.917,84.991 C366.678,85.111 366.52,85.348 366.56,85.628 C366.601,85.906 366.799,86.105 367.037,86.184 L376.5,88.172 L373.359,96.123 C373.28,96.362 373.319,96.64 373.518,96.799 C373.717,96.957 373.995,96.997 374.234,96.878 L382.623,92.385 L386.917,100.097 C387.037,100.296 387.236,100.415 387.473,100.415 L387.553,100.415 C387.792,100.375 387.991,100.217 388.07,99.977 L390.336,91.669 L399.638,94.492 C399.877,94.571 400.155,94.492 400.314,94.253 C400.472,94.054 400.472,93.736 400.314,93.537 L395.265,86.381 L403.972,82.606 C404.212,82.486 404.37,82.248 404.33,81.969 C404.289,81.731 404.09,81.492 403.853,81.453 z" fill="#000000" id="Layer_1"/>
  </g>
</svg>
