<?xml version="1.0" encoding="UTF-8"?>
<!DOCTYPE svg PUBLIC "-//W3C//DTD SVG 1.1//EN" "http://www.w3.org/Graphics/SVG/1.1/DTD/svg11.dtd">
<svg version="1.1" xmlns="http://www.w3.org/2000/svg" xmlns:xlink="http://www.w3.org/1999/xlink" x="0" y="0" width="129.155" height="123.323" viewBox="0, 0, 129.155, 123.323">
  <g id="Layer_1" transform="translate(-20.781, -150.485)">
    <g>
      <g>
        <path d="M49.037,269.308 L26.281,199.271 L85.858,155.985 L145.436,199.271 L122.679,269.308 z" fill="#FFFFFF"/>
        <path d="M49.037,269.308 L26.281,199.271 L85.858,155.985 L145.436,199.271 L122.679,269.308 z" fill-opacity="0" stroke="#000000" stroke-width="9" stroke-linejoin="round"/>
      </g>
      <path d="M77.691,201.201 L68.228,199.213 L71.368,191.221 C71.448,190.982 71.409,190.704 71.21,190.545 C71.011,190.387 70.733,190.347 70.494,190.466 L62.106,194.958 L57.812,187.286 C57.692,187.087 57.455,186.928 57.216,186.967 C56.976,187.008 56.778,187.166 56.698,187.405 L54.433,195.714 L45.13,192.89 C44.891,192.811 44.613,192.89 44.455,193.129 C44.296,193.328 44.296,193.647 44.455,193.845 L49.503,201.002 L40.755,204.738 C40.516,204.858 40.358,205.095 40.398,205.375 C40.438,205.653 40.637,205.852 40.875,205.931 L50.337,207.919 L47.197,215.87 C47.118,216.109 47.157,216.387 47.356,216.546 C47.554,216.704 47.832,216.745 48.072,216.625 L56.461,212.132 L60.755,219.844 C60.875,220.043 61.074,220.162 61.311,220.162 L61.39,220.162 C61.63,220.122 61.828,219.964 61.908,219.725 L64.173,211.416 L73.476,214.239 C73.715,214.319 73.993,214.239 74.151,214 C74.31,213.802 74.31,213.483 74.151,213.284 L69.103,206.128 L77.81,202.353 C78.049,202.233 78.208,201.995 78.167,201.716 C78.127,201.478 77.928,201.239 77.691,201.2 z" fill="#000000" id="Layer_1"/>
      <path d="M114.264,204.266 C117.683,199.332 113.86,195.502 112.77,194.249 C109.647,191.389 104.452,191.455 100.928,193.755 C89.793,201.027 97.597,220.108 113.045,217.299 C113.553,217.207 117.233,216.291 120.415,213.955 C124.948,210.042 126.222,206.246 126.86,200.704 L131.1,200.879 C131.568,215.42 113.815,228.257 99.445,218.675 C86.013,209.719 90.327,189.86 104.663,187.783 C119.685,185.607 125.558,205.082 113.741,210.151 C109.617,211.92 104.491,210.378 102.671,205.976 C101.4,202.906 101.61,200.022 104.033,198.598 C109.54,195.717 112.778,202.731 108.738,204.939 C106.608,207.632 112.661,206.77 114.265,204.266 z" fill="#000000" id="Layer_1"/>
      <path d="M101.468,237.895 L92.005,235.907 L95.145,227.915 C95.225,227.676 95.186,227.398 94.987,227.24 C94.788,227.081 94.51,227.041 94.271,227.16 L85.883,231.652 L81.589,223.98 C81.469,223.781 81.232,223.623 80.993,223.661 C80.753,223.702 80.555,223.86 80.475,224.099 L78.21,232.408 L68.907,229.584 C68.668,229.505 68.39,229.584 68.232,229.824 C68.073,230.022 68.073,230.341 68.232,230.54 L73.28,237.696 L64.532,241.432 C64.293,241.552 64.135,241.79 64.175,242.069 C64.215,242.347 64.414,242.546 64.652,242.625 L74.114,244.613 L70.974,252.564 C70.895,252.803 70.934,253.081 71.133,253.24 C71.331,253.398 71.609,253.439 71.849,253.319 L80.238,248.826 L84.532,256.538 C84.652,256.737 84.851,256.857 85.088,256.857 L85.168,256.857 C85.407,256.816 85.605,256.658 85.685,256.419 L87.951,248.11 L97.253,250.934 C97.492,251.013 97.77,250.934 97.928,250.694 C98.087,250.496 98.087,250.177 97.928,249.978 L92.88,242.822 L101.587,239.047 C101.826,238.927 101.985,238.69 101.944,238.41 C101.904,238.172 101.705,237.933 101.468,237.894 z" fill="#000000" id="Layer_1"/>
    </g>
  </g>
</svg>
