<?xml version="1.0" encoding="UTF-8"?>
<!DOCTYPE svg PUBLIC "-//W3C//DTD SVG 1.1//EN" "http://www.w3.org/Graphics/SVG/1.1/DTD/svg11.dtd">
<svg version="1.1" xmlns="http://www.w3.org/2000/svg" xmlns:xlink="http://www.w3.org/1999/xlink" x="0" y="0" width="129.155" height="123.323" viewBox="0, 0, 129.155, 123.323">
  <g id="Layer_1" transform="translate(-175.592, -147.177)">
    <g>
      <path d="M203.849,266 L181.092,195.963 L240.669,152.677 L300.247,195.963 L277.49,266 z" fill="#FFFFFF"/>
      <path d="M203.849,266 L181.092,195.963 L240.669,152.677 L300.247,195.963 L277.49,266 z" fill-opacity="0" stroke="#000000" stroke-width="9" stroke-linejoin="round"/>
    </g>
    <path d="M241.103,197.893 L231.64,195.905 L234.78,187.913 C234.859,187.674 234.821,187.396 234.622,187.237 C234.423,187.079 234.145,187.039 233.906,187.158 L225.518,191.65 L221.224,183.978 C221.104,183.779 220.867,183.621 220.627,183.659 C220.388,183.7 220.189,183.858 220.11,184.097 L217.844,192.406 L208.542,189.582 C208.303,189.503 208.025,189.582 207.867,189.822 C207.708,190.02 207.708,190.339 207.867,190.537 L212.915,197.694 L204.167,201.43 C203.928,201.55 203.77,201.787 203.81,202.067 C203.85,202.345 204.049,202.544 204.287,202.623 L213.749,204.611 L210.609,212.562 C210.53,212.801 210.569,213.079 210.768,213.238 C210.966,213.396 211.244,213.437 211.483,213.317 L219.873,208.824 L224.167,216.536 C224.287,216.735 224.486,216.855 224.723,216.855 L224.802,216.855 C225.041,216.814 225.24,216.656 225.319,216.417 L227.585,208.108 L236.888,210.932 C237.127,211.011 237.405,210.932 237.563,210.692 C237.722,210.494 237.722,210.175 237.563,209.976 L232.514,202.82 L241.222,199.045 C241.461,198.925 241.62,198.688 241.579,198.408 C241.539,198.17 241.34,197.931 241.103,197.892 z" fill="#000000" id="Layer_1"/>
    <path d="M258.49,232.714 C261.909,227.78 258.086,223.951 256.996,222.697 C253.872,219.837 248.678,219.904 245.154,222.204 C234.019,229.475 241.823,248.557 257.271,245.747 C257.779,245.656 261.459,244.739 264.641,242.404 C269.174,238.49 270.448,234.694 271.086,229.152 L275.326,229.327 C275.793,243.868 258.041,256.705 243.671,247.123 C230.239,238.167 234.553,218.309 248.889,216.231 C263.911,214.055 269.783,233.53 257.966,238.599 C253.843,240.368 248.717,238.826 246.896,234.425 C245.626,231.354 245.836,228.47 248.258,227.046 C253.766,224.165 257.003,231.179 252.964,233.387 C250.833,236.08 256.887,235.218 258.491,232.714 z" fill="#000000" id="Layer_1"/>
  </g>
</svg>
