<?xml version="1.0" encoding="UTF-8"?>
<!DOCTYPE svg PUBLIC "-//W3C//DTD SVG 1.1//EN" "http://www.w3.org/Graphics/SVG/1.1/DTD/svg11.dtd">
<svg version="1.1" xmlns="http://www.w3.org/2000/svg" xmlns:xlink="http://www.w3.org/1999/xlink" x="0" y="0" width="129.155" height="123.323" viewBox="0, 0, 129.155, 123.323">
  <g id="Layer_1" transform="translate(-320.48, -143.869)">
    <g>
      <path d="M348.736,262.692 L325.98,192.655 L385.557,149.369 L445.134,192.655 L422.378,262.692 z" fill="#FFFFFF"/>
      <path d="M348.736,262.692 L325.98,192.655 L385.557,149.369 L445.134,192.655 L422.378,262.692 z" fill-opacity="0" stroke="#000000" stroke-width="9" stroke-linejoin="round"/>
    </g>
    <path d="M391.468,211.543 C394.888,206.61 391.065,202.78 389.974,201.527 C386.851,198.666 381.656,198.733 378.133,201.033 C366.998,208.304 374.802,227.386 390.25,224.577 C390.757,224.485 394.438,223.569 397.62,221.233 C402.153,217.319 403.427,213.524 404.065,207.981 L408.305,208.157 C408.772,222.697 391.02,235.535 376.65,225.953 C363.218,216.997 367.532,197.138 381.868,195.06 C396.89,192.884 402.762,212.359 390.945,217.428 C386.822,219.197 381.695,217.655 379.875,213.254 C378.605,210.184 378.815,207.299 381.237,205.875 C386.745,202.994 389.982,210.008 385.943,212.216 C383.812,214.909 389.866,214.047 391.47,211.544 z" fill="#000000" id="Layer_1"/>
  </g>
</svg>
