<?xml version="1.0" encoding="UTF-8"?>
<!DOCTYPE svg PUBLIC "-//W3C//DTD SVG 1.1//EN" "http://www.w3.org/Graphics/SVG/1.1/DTD/svg11.dtd">
<svg version="1.1" xmlns="http://www.w3.org/2000/svg" xmlns:xlink="http://www.w3.org/1999/xlink" x="0" y="0" width="129.155" height="123.323" viewBox="0, 0, 129.155, 123.323">
  <g id="Layer_1" transform="translate(-18.796, -281.479)">
    <g>
      <g>
        <path d="M47.053,400.302 L24.296,330.265 L83.873,286.979 L143.451,330.265 L120.694,400.302 z" fill="#FFFFFF"/>
        <path d="M47.053,400.302 L24.296,330.265 L83.873,286.979 L143.451,330.265 L120.694,400.302 z" fill-opacity="0" stroke="#000000" stroke-width="9" stroke-linejoin="round"/>
      </g>
      <path d="M68.836,318.683 L68.836,336.33 L84.132,345.161 L81.879,349.063 L66.62,340.253 L66.104,340.55 L66.1,340.544 L51.309,349.084 L49.056,345.182 L64.337,336.359 L64.33,336.359 L64.33,318.683 L68.836,318.683 z M68.803,336.359 L68.788,336.359 L68.795,336.372 L68.803,336.359 z M64.385,336.359 L64.373,336.359 L64.376,336.364 L64.385,336.359 z" fill="#000000"/>
      <path d="M100.21,345.203 L100.21,362.85 L115.506,371.681 L113.253,375.583 L97.993,366.773 L97.477,367.07 L97.474,367.064 L82.682,375.604 L80.43,371.702 L95.711,362.879 L95.704,362.879 L95.704,345.203 L100.21,345.203 z M100.177,362.879 L100.161,362.879 L100.169,362.892 L100.177,362.879 z M95.758,362.879 L95.747,362.879 L95.75,362.884 L95.758,362.879 z" fill="#000000"/>
    </g>
  </g>
</svg>
