<?xml version="1.0" encoding="UTF-8"?>
<!DOCTYPE svg PUBLIC "-//W3C//DTD SVG 1.1//EN" "http://www.w3.org/Graphics/SVG/1.1/DTD/svg11.dtd">
<svg version="1.1" xmlns="http://www.w3.org/2000/svg" xmlns:xlink="http://www.w3.org/1999/xlink" x="0" y="0" width="129.155" height="123.323" viewBox="0, 0, 129.155, 123.323">
  <g id="Layer_1" transform="translate(-176.254, -281.479)">
    <g>
      <path d="M204.51,400.302 L181.754,330.265 L241.331,286.979 L300.908,330.265 L278.152,400.302 z" fill="#FFFFFF"/>
      <path d="M204.51,400.302 L181.754,330.265 L241.331,286.979 L300.908,330.265 L278.152,400.302 z" fill-opacity="0" stroke="#000000" stroke-width="9" stroke-linejoin="round"/>
    </g>
    <path d="M243.495,332.576 L243.495,350.223 L258.791,359.054 L256.538,362.956 L241.278,354.146 L240.763,354.444 L240.759,354.437 L225.968,362.977 L223.715,359.075 L238.996,350.252 L238.989,350.252 L238.989,332.576 L243.495,332.576 z M243.462,350.252 L243.447,350.252 L243.454,350.266 L243.462,350.252 z M239.044,350.252 L239.032,350.252 L239.035,350.257 L239.044,350.252 z" fill="#000000"/>
  </g>
</svg>
