<?xml version="1.0" encoding="UTF-8"?>
<!DOCTYPE svg PUBLIC "-//W3C//DTD SVG 1.1//EN" "http://www.w3.org/Graphics/SVG/1.1/DTD/svg11.dtd">
<svg version="1.1" xmlns="http://www.w3.org/2000/svg" xmlns:xlink="http://www.w3.org/1999/xlink" x="0" y="0" width="129.155" height="123.323" viewBox="0, 0, 129.155, 123.323">
  <g id="Layer_1" transform="translate(-327.095, -278.172)">
    <g>
      <g>
        <path d="M355.352,396.994 L332.595,326.957 L392.173,283.672 L451.75,326.957 L428.994,396.994 z" fill="#FFFFFF"/>
        <path d="M355.352,396.994 L332.595,326.957 L392.173,283.672 L451.75,326.957 L428.994,396.994 z" fill-opacity="0" stroke="#000000" stroke-width="9" stroke-linejoin="round"/>
      </g>
      <path d="M391.283,330.872 L381.82,328.884 L384.96,320.892 C385.04,320.653 385.001,320.375 384.802,320.216 C384.603,320.058 384.325,320.018 384.086,320.137 L375.698,324.629 L371.404,316.957 C371.284,316.758 371.047,316.599 370.808,316.638 C370.568,316.679 370.37,316.837 370.29,317.076 L368.025,325.385 L358.722,322.561 C358.483,322.482 358.205,322.561 358.047,322.8 C357.888,322.999 357.888,323.318 358.047,323.516 L363.095,330.673 L354.347,334.409 C354.108,334.529 353.95,334.766 353.99,335.046 C354.03,335.324 354.229,335.523 354.467,335.602 L363.929,337.59 L360.789,345.541 C360.71,345.78 360.749,346.058 360.948,346.217 C361.146,346.375 361.424,346.416 361.664,346.296 L370.053,341.803 L374.347,349.515 C374.467,349.714 374.666,349.833 374.903,349.833 L374.982,349.833 C375.222,349.793 375.42,349.635 375.5,349.396 L377.766,341.087 L387.068,343.91 C387.307,343.99 387.585,343.91 387.743,343.671 C387.902,343.473 387.902,343.154 387.743,342.955 L382.695,335.799 L391.402,332.024 C391.641,331.904 391.8,331.667 391.759,331.387 C391.719,331.149 391.52,330.91 391.283,330.871 z" fill="#000000" id="Layer_1"/>
      <path d="M411.538,341.177 L411.538,358.824 L426.834,367.655 L424.581,371.557 L409.321,362.747 L408.806,363.044 L408.802,363.038 L394.011,371.578 L391.758,367.676 L407.039,358.853 L407.032,358.853 L407.032,341.177 L411.538,341.177 z M411.505,358.853 L411.49,358.853 L411.497,358.866 L411.505,358.853 z M407.087,358.853 L407.075,358.853 L407.078,358.858 L407.087,358.853 z" fill="#000000"/>
    </g>
  </g>
</svg>
