<?xml version="1.0" encoding="UTF-8"?>
<!DOCTYPE svg PUBLIC "-//W3C//DTD SVG 1.1//EN" "http://www.w3.org/Graphics/SVG/1.1/DTD/svg11.dtd">
<svg version="1.1" xmlns="http://www.w3.org/2000/svg" xmlns:xlink="http://www.w3.org/1999/xlink" x="0" y="0" width="21.35" height="23.749" viewBox="0, 0, 85.398, 94.995">
  <g id="Layer_1">
    <g id="Layer_1">
      <path d="M84.601,74.898 C84.601,74.796 70.402,30.597 70.402,30.597 C68.8,25.898 64.503,22.597 59.402,22.597 L54.703,22.597 L54.703,28.898 L59.402,28.898 C61.703,28.898 63.703,30.398 64.402,32.499 L74.601,64.198 C72.999,63.597 71.202,63.3 69.3,63.3 L15.8,63.3 C13.999,63.3 12.198,63.698 10.499,64.198 L20.8,32.499 C21.499,30.3 23.499,28.898 25.699,28.898 L30.398,28.898 L30.398,22.597 L25.699,22.597 C20.699,22.597 16.3,25.796 14.801,30.597 C14.801,30.597 0.602,74.796 0.602,74.898 C0.203,76.296 0,77.699 0,79.097 C0,87.796 7.199,94.995 15.898,94.995 L69.5,94.995 C78.301,94.995 85.398,87.796 85.398,79.097 C85.3,77.699 85,76.199 84.601,74.898 z M69.402,88.699 L15.8,88.699 C10.499,88.699 6.198,84.398 6.198,79.097 C6.198,73.797 10.499,69.496 15.8,69.496 L69.402,69.496 C74.703,69.496 79.003,73.695 79.003,79.097 C78.999,84.398 74.703,88.699 69.402,88.699 z" fill="#000000"/>
      <path d="M68.999,75.898 L56.601,75.898 C54.902,75.898 53.402,77.296 53.402,79.097 C53.402,80.796 54.8,82.296 56.601,82.296 L69.101,82.296 C70.8,82.296 72.3,80.898 72.3,79.097 C72.202,77.398 70.8,75.898 68.999,75.898 z" fill="#000000"/>
      <path d="M30.203,42.199 L40.703,53.5 C41.203,54 41.902,54.301 42.601,54.301 C43.3,54.301 44,54 44.5,53.5 L54.898,42.301 C55.597,41.5 55.796,40.403 55.398,39.5 C54.999,38.5 53.999,37.899 52.999,37.899 L48.398,37.899 L48.401,2.602 C48.401,1.102 47.202,0 45.8,0 L39.401,0 C37.901,0 36.8,1.199 36.8,2.602 L36.8,37.801 L32.198,37.801 C31.198,37.801 30.198,38.402 29.8,39.402 C29.3,40.301 29.499,41.5 30.202,42.199 z" fill="#000000"/>
    </g>
  </g>
</svg>
